<?xml version="1.0" encoding="UTF-8"?>
<svg width="780px" height="780px" viewBox="0 0 780 780" version="1.1" xmlns="http://www.w3.org/2000/svg" xmlns:xlink="http://www.w3.org/1999/xlink">
    <!-- Generator: Sketch 52.5 (67469) - http://www.bohemiancoding.com/sketch -->
    <title>Group@svg</title>
    <desc>Created with Sketch.</desc>
    <defs>
        <linearGradient x1="4.68761713%" y1="-24.7261998%" x2="50%" y2="100%" id="linearGradient-1">
            <stop stop-color="#6FA4FC" offset="0%"></stop>
            <stop stop-color="#4083FD" offset="100%"></stop>
        </linearGradient>
        <linearGradient x1="154.448149%" y1="-11.5897126%" x2="62.1632099%" y2="10.8719867%" id="linearGradient-2">
            <stop stop-color="#87B3FF" offset="0%"></stop>
            <stop stop-color="#87B2FF" stop-opacity="0" offset="100%"></stop>
        </linearGradient>
        <linearGradient x1="136.346323%" y1="3.69760601%" x2="62.1632099%" y2="10.8719867%" id="linearGradient-3">
            <stop stop-color="#005DFF" offset="0%"></stop>
            <stop stop-color="#87B2FF" stop-opacity="0" offset="100%"></stop>
        </linearGradient>
        <polygon id="path-4" points="66 122 69 92 74 47 73 5 53 0 0 30 36 152"></polygon>
        <filter x="-160.9%" y="-98.5%" width="421.9%" height="297.0%" filterUnits="objectBoundingBox" id="filter-5">
            <feGaussianBlur stdDeviation="50" in="SourceGraphic"></feGaussianBlur>
        </filter>
        <path d="M100.626577,86.9122827 C140.449448,86.9122827 140.216975,97.8842924 207.573455,93.4347804 C207.573455,58.312589 175.29064,29.8404273 135.467769,29.8404273 C95.6448977,29.8404273 63.3620823,58.312589 63.3620823,93.4347804 C64.1945019,229.360985 60.8037059,86.9122827 100.626577,86.9122827 Z" id="path-7"></path>
        <filter x="-25.3%" y="-55.2%" width="140.9%" height="173.6%" filterUnits="objectBoundingBox" id="filter-8">
            <feMorphology radius="2" operator="erode" in="SourceAlpha" result="shadowSpreadOuter1"></feMorphology>
            <feOffset dx="-7" dy="-38" in="shadowSpreadOuter1" result="shadowOffsetOuter1"></feOffset>
            <feGaussianBlur stdDeviation="5.5" in="shadowOffsetOuter1" result="shadowBlurOuter1"></feGaussianBlur>
            <feColorMatrix values="0 0 0 0 0.405855429   0 0 0 0 0.554593387   0 0 0 0 1  0 0 0 0.5 0" type="matrix" in="shadowBlurOuter1"></feColorMatrix>
        </filter>
    </defs>
    <g id="DESIGN" stroke="none" stroke-width="1" fill="none" fill-rule="evenodd">
        <g id="Artboard" transform="translate(-360.000000, -360.000000)">
            <g id="Group" transform="translate(360.000000, 360.000000)">
                <path d="M235.877438,-9.52973083e-15 L544.122562,9.52973083e-15 C626.142286,-5.53704805e-15 655.88462,8.53995623 685.869805,24.5762087 C715.85499,40.6124613 739.387539,64.1450101 755.423791,94.1301953 C771.460044,124.11538 780,153.857714 780,235.877438 L780,544.122562 C780,626.142286 771.460044,655.88462 755.423791,685.869805 C739.387539,715.85499 715.85499,739.387539 685.869805,755.423791 C655.88462,771.460044 626.142286,780 544.122562,780 L235.877438,780 C153.857714,780 124.11538,771.460044 94.1301953,755.423791 C64.1450101,739.387539 40.6124613,715.85499 24.5762087,685.869805 C8.53995623,655.88462 3.69136537e-15,626.142286 -6.35315389e-15,544.122562 L6.35315389e-15,235.877438 C-3.69136537e-15,153.857714 8.53995623,124.11538 24.5762087,94.1301953 C40.6124613,64.1450101 64.1450101,40.6124613 94.1301953,24.5762087 C124.11538,8.53995623 153.857714,5.53704805e-15 235.877438,-9.52973083e-15 Z" id="Rectangle-10" fill="url(#linearGradient-1)"></path>
                <g id="Group-3" transform="translate(158.000000, 198.000000)">
                    <g id="Group-2">
                        <path d="M78.4158252,412.904804 L54.2052888,376.012078 L39.9047646,376.012078 L39.9047646,412.904804 L30.9982978,412.904804 L30.9982978,324.437552 L58.0940278,324.437552 C68.0459043,324.437552 75.4678857,326.779924 80.3601947,331.464738 C85.2525038,336.149552 87.6986216,342.465591 87.6986216,350.413043 C87.6986216,357.774894 85.6288296,363.630823 81.4891835,367.981008 C77.3495374,372.331192 71.3492313,374.924533 63.4880851,375.761107 L88.4512808,412.904804 L78.4158252,412.904804 Z M39.9047646,369.361348 L57.4668118,369.361348 C71.6837782,369.361348 78.7921548,363.212622 78.7921548,350.914985 C78.7921548,338.366376 71.6837782,332.092166 57.4668118,332.092166 L39.9047646,332.092166 L39.9047646,369.361348 Z M132.230956,406.505045 C138.419517,406.505045 143.604451,404.957407 147.785912,401.862083 C151.967372,398.766759 154.476211,394.583952 155.312503,389.313537 L164.5953,389.313537 C163.340861,396.59173 159.870301,402.489488 154.183514,407.006987 C148.496728,411.524486 141.304723,413.783202 132.607285,413.783202 C126.084206,413.783202 120.29297,412.381962 115.233403,409.579439 C110.173835,406.776916 106.222414,402.719594 103.379021,397.407349 C100.535628,392.095105 99.1139523,385.841808 99.1139523,378.647272 C99.1139523,371.452736 100.535628,365.19944 103.379021,359.887196 C106.222414,354.574951 110.173835,350.517628 115.233403,347.715106 C120.29297,344.912583 126.084206,343.511343 132.607285,343.511343 C139.297622,343.511343 145.088858,344.912583 149.981167,347.715106 C154.873477,350.517628 158.594921,354.261241 161.145612,358.946055 C163.696303,363.630869 164.971629,368.733893 164.971629,374.255281 C164.971629,376.597688 164.804373,378.73092 164.469856,380.65504 L107.769533,380.65504 C107.853162,386.4274 109.04486,391.258542 111.344664,395.148611 C113.644467,399.038679 116.634167,401.903902 120.313852,403.744365 C123.993537,405.584828 127.965866,406.505045 132.230956,406.505045 Z M132.607285,350.664014 C128.174937,350.664014 124.118981,351.584232 120.439295,353.424694 C116.75961,355.265157 113.76991,358.088552 111.470107,361.894963 C109.170303,365.701374 107.936791,370.44886 107.769533,376.137563 L156.190606,376.137563 C156.525122,370.532518 155.605215,365.805946 153.430855,361.957706 C151.256496,358.109466 148.329517,355.265157 144.649832,353.424694 C140.970146,351.584232 136.956004,350.664014 132.607285,350.664014 Z M209.629406,343.511343 C216.570631,343.511343 222.487309,345.30995 227.379618,348.907218 C232.271927,352.504485 235.637953,357.272885 237.477795,363.21256 L237.477795,344.389741 L246.133376,344.389741 L246.133376,412.904804 L237.477795,412.904804 L237.477795,394.081984 C235.637953,400.021659 232.271927,404.790059 227.379618,408.387327 C222.487309,411.984595 216.570631,413.783202 209.629406,413.783202 C203.440844,413.783202 197.900492,412.361048 193.008183,409.516696 C188.115874,406.672345 184.310802,402.594108 181.592852,397.281864 C178.874903,391.969619 177.515949,385.758151 177.515949,378.647272 C177.515949,371.452736 178.874903,365.19944 181.592852,359.887196 C184.310802,354.574951 188.094967,350.517628 192.945461,347.715106 C197.795956,344.912583 203.357215,343.511343 209.629406,343.511343 Z M211.887384,351.291441 C204.193496,351.291441 198.025934,353.738383 193.384513,358.632341 C188.743091,363.526298 186.422415,370.197876 186.422415,378.647272 C186.422415,387.096669 188.743091,393.768246 193.384513,398.662204 C198.025934,403.556161 204.193496,406.003103 211.887384,406.003103 C216.737878,406.003103 221.107439,404.873745 224.996198,402.614996 C228.884956,400.356246 231.937377,397.156399 234.153551,393.015358 C236.369725,388.874317 237.477795,384.085003 237.477795,378.647272 C237.477795,373.209542 236.369725,368.420228 234.153551,364.279187 C231.937377,360.138146 228.884956,356.938298 224.996198,354.679549 C221.107439,352.420799 216.737878,351.291441 211.887384,351.291441 Z M294.052676,343.511343 C300.993901,343.511343 306.910579,345.30995 311.802888,348.907218 C316.695197,352.504485 320.019408,357.272885 321.775622,363.21256 L321.775622,320.045561 L330.556645,320.045561 L330.556645,412.904804 L321.775622,412.904804 L321.775622,394.081984 C320.019408,400.021659 316.695197,404.790059 311.802888,408.387327 C306.910579,411.984595 300.993901,413.783202 294.052676,413.783202 C287.864114,413.783202 282.323762,412.361048 277.431453,409.516696 C272.539144,406.672345 268.734072,402.594108 266.016122,397.281864 C263.298173,391.969619 261.939218,385.758151 261.939218,378.647272 C261.939218,371.452736 263.298173,365.19944 266.016122,359.887196 C268.734072,354.574951 272.518237,350.517628 277.368731,347.715106 C282.219226,344.912583 287.780485,343.511343 294.052676,343.511343 Z M296.310653,351.291441 C288.616766,351.291441 282.449204,353.738383 277.807782,358.632341 C273.166361,363.526298 270.845685,370.197876 270.845685,378.647272 C270.845685,387.096669 273.166361,393.768246 277.807782,398.662204 C282.449204,403.556161 288.616766,406.003103 296.310653,406.003103 C301.161148,406.003103 305.530709,404.873745 309.419467,402.614996 C313.308226,400.356246 316.360646,397.156399 318.57682,393.015358 C320.792995,388.874317 321.901065,384.085003 321.901065,378.647272 C321.901065,373.209542 320.792995,368.420228 318.57682,364.279187 C316.360646,360.138146 313.308226,356.938298 309.419467,354.679549 C305.530709,352.420799 301.161148,351.291441 296.310653,351.291441 Z M379.479491,406.505045 C385.668053,406.505045 390.852986,404.957407 395.034447,401.862083 C399.215908,398.766759 401.724747,394.583952 402.561039,389.313537 L411.843835,389.313537 C410.589397,396.59173 407.118837,402.489488 401.43205,407.006987 C395.745264,411.524486 388.553259,413.783202 379.855821,413.783202 C373.332742,413.783202 367.541506,412.381962 362.481938,409.579439 C357.422371,406.776916 353.47095,402.719594 350.627556,397.407349 C347.784163,392.095105 346.362488,385.841808 346.362488,378.647272 C346.362488,371.452736 347.784163,365.19944 350.627556,359.887196 C353.47095,354.574951 357.422371,350.517628 362.481938,347.715106 C367.541506,344.912583 373.332742,343.511343 379.855821,343.511343 C386.546158,343.511343 392.337394,344.912583 397.229703,347.715106 C402.122012,350.517628 405.843456,354.261241 408.394147,358.946055 C410.944838,363.630869 412.220165,368.733893 412.220165,374.255281 C412.220165,376.597688 412.052909,378.73092 411.718392,380.65504 L355.018068,380.65504 C355.101697,386.4274 356.293396,391.258542 358.593199,395.148611 C360.893003,399.038679 363.882702,401.903902 367.562388,403.744365 C371.242073,405.584828 375.214401,406.505045 379.479491,406.505045 Z M379.855821,350.664014 C375.423472,350.664014 371.367516,351.584232 367.687831,353.424694 C364.008145,355.265157 361.018446,358.088552 358.718642,361.894963 C356.418839,365.701374 355.185327,370.44886 355.018068,376.137563 L403.439141,376.137563 C403.773658,370.532518 402.853751,365.805946 400.679391,361.957706 C398.505031,358.109466 395.578053,355.265157 391.898367,353.424694 C388.218682,351.584232 384.20454,350.664014 379.855821,350.664014 Z M436.932474,358.569598 C438.939575,353.633812 442.159252,349.827458 446.5916,347.150421 C451.023948,344.473384 456.417952,343.134886 462.773772,343.134886 L462.773772,352.671781 L459.888579,352.671781 C453.281871,352.671781 447.804239,354.449474 443.45552,358.004914 C439.106801,361.560353 436.932474,367.35354 436.932474,375.38465 L436.932474,412.904804 L428.026007,412.904804 L428.026007,344.389741 L436.932474,344.389741 L436.932474,358.569598 Z" id="Reader" fill="#FFFFFF"></path>
                        <g id="Group-Copy">
                            <path d="M220.280463,12.1575239 L220.280463,78.1652012 L150.99491,78.1652012 L150.99491,277.688408 L69.178991,277.688408 L69.178991,78.1652012 L0.630518437,78.1652012 L0.630518437,12.1575239 L220.280463,12.1575239 Z M387.966242,64.6636309 C411.798626,64.6636309 430.409719,72.7894947 443.800079,89.0414663 C457.190439,105.293438 463.885518,127.295777 463.885518,155.049144 L463.885518,277.688408 L382.43814,277.688408 L382.43814,165.550365 C382.43814,155.549152 379.796961,147.610808 374.514526,141.735095 C369.23209,135.859382 362.168474,132.92157 353.323466,132.92157 C344.232763,132.92157 337.107724,135.859382 331.948136,141.735095 C326.788547,147.610808 324.208792,155.549152 324.208792,165.550365 L324.208792,277.688408 L242.392873,277.688408 L242.392873,0.156127999 L324.208792,0.156127999 L324.208792,98.4175568 C330.596854,88.4163435 339.134616,80.2904797 349.822334,74.0397214 C360.510053,67.7889631 373.224562,64.6636309 387.966242,64.6636309 Z" id="Th" fill="#FFFFFF"></path>
                            <rect id="Rectangle" fill="url(#linearGradient-2)" opacity="0.713192894" x="54.6296658" y="78.2630387" width="96.1409152" height="200"></rect>
                            <rect id="Rectangle" fill="url(#linearGradient-3)" opacity="0.480515253" x="38.6061799" y="78.2630387" width="112.164401" height="200"></rect>
                        </g>
                        <g id="Oval" opacity="0.829985119" transform="translate(252.450403, 34.725366)">
                            <mask id="mask-6" fill="white">
                                <use xlink:href="#path-4"></use>
                            </mask>
                            <g id="Mask" filter="url(#filter-5)"></g>
                            <g mask="url(#mask-6)">
                                <use fill="black" fill-opacity="1" filter="url(#filter-8)" xlink:href="#path-7"></use>
                                <use fill="#FFFFFF" fill-rule="evenodd" xlink:href="#path-7"></use>
                            </g>
                        </g>
                    </g>
                </g>
            </g>
        </g>
    </g>
</svg>